<?xml version="1.0" encoding="UTF-8"?>
<svg width="90px" height="90px" viewBox="0 0 90 90" version="1.1" xmlns="http://www.w3.org/2000/svg" xmlns:xlink="http://www.w3.org/1999/xlink">
    <!-- Generator: Sketch 47.1 (45422) - http://www.bohemiancoding.com/sketch -->
    <title>Group 15 Copy</title>
    <desc>Created with Sketch.</desc>
    <defs>
        <rect id="path-1" x="0" y="0" width="90" height="90"></rect>
    </defs>
    <g id="/question/[id]" stroke="none" stroke-width="1" fill="none" fill-rule="evenodd">
        <g id="main" transform="translate(-820.000000, -849.000000)">
            <g id="Group-14" transform="translate(85.000000, 849.000000)">
                <g id="Group-15-Copy" transform="translate(735.000000, 0.000000)">
                    <mask id="mask-2" fill="white">
                        <use xlink:href="#path-1"></use>
                    </mask>
                    <use id="Mask" fill-opacity="0" fill="#D8D8D8" xlink:href="#path-1"></use>
                    <g id="Group-13" mask="url(#mask-2)" fill="#E0E0E0">
                        <g transform="translate(-9.000000, -131.000000)">
                            <rect id="Rectangle-5-Copy" transform="translate(64.000000, 69.500000) rotate(-45.000000) translate(-64.000000, -69.500000) " x="-26" y="69" width="180" height="1"></rect>
                            <rect id="Rectangle-5-Copy-3" transform="translate(64.000000, 74.500000) rotate(-45.000000) translate(-64.000000, -74.500000) " x="-26" y="74" width="180" height="1"></rect>
                            <rect id="Rectangle-5-Copy-2" transform="translate(64.000000, 79.500000) rotate(-45.000000) translate(-64.000000, -79.500000) " x="-26" y="79" width="180" height="1"></rect>
                            <rect id="Rectangle-5-Copy-5" transform="translate(64.000000, 84.500000) rotate(-45.000000) translate(-64.000000, -84.500000) " x="-26" y="84" width="180" height="1"></rect>
                            <rect id="Rectangle-5-Copy-4" transform="translate(64.000000, 89.500000) rotate(-45.000000) translate(-64.000000, -89.500000) " x="-26" y="89" width="180" height="1"></rect>
                            <rect id="Rectangle-5-Copy-7" transform="translate(64.000000, 94.500000) rotate(-45.000000) translate(-64.000000, -94.500000) " x="-26" y="94" width="180" height="1"></rect>
                            <rect id="Rectangle-5-Copy-13" transform="translate(64.000000, 99.500000) rotate(-45.000000) translate(-64.000000, -99.500000) " x="-26" y="99" width="180" height="1"></rect>
                            <rect id="Rectangle-5-Copy-12" transform="translate(64.000000, 104.500000) rotate(-45.000000) translate(-64.000000, -104.500000) " x="-26" y="104" width="180" height="1"></rect>
                            <rect id="Rectangle-5-Copy-11" transform="translate(64.000000, 109.500000) rotate(-45.000000) translate(-64.000000, -109.500000) " x="-26" y="109" width="180" height="1"></rect>
                            <rect id="Rectangle-5-Copy-10" transform="translate(64.000000, 114.500000) rotate(-45.000000) translate(-64.000000, -114.500000) " x="-26" y="114" width="180" height="1"></rect>
                            <rect id="Rectangle-5-Copy-9" transform="translate(64.000000, 119.500000) rotate(-45.000000) translate(-64.000000, -119.500000) " x="-26" y="119" width="180" height="1"></rect>
                            <rect id="Rectangle-5-Copy-6" transform="translate(64.000000, 124.500000) rotate(-45.000000) translate(-64.000000, -124.500000) " x="-26" y="124" width="180" height="1"></rect>
                            <rect id="Rectangle-5-Copy-8" transform="translate(64.000000, 129.500000) rotate(-45.000000) translate(-64.000000, -129.500000) " x="-26" y="129" width="180" height="1"></rect>
                            <rect id="Rectangle-5-Copy-20" transform="translate(64.000000, 134.500000) rotate(-45.000000) translate(-64.000000, -134.500000) " x="-26" y="134" width="180" height="1"></rect>
                            <rect id="Rectangle-5-Copy-19" transform="translate(64.000000, 139.500000) rotate(-45.000000) translate(-64.000000, -139.500000) " x="-26" y="139" width="180" height="1"></rect>
                            <rect id="Rectangle-5-Copy-18" transform="translate(64.000000, 144.500000) rotate(-45.000000) translate(-64.000000, -144.500000) " x="-26" y="144" width="180" height="1"></rect>
                            <rect id="Rectangle-5-Copy-17" transform="translate(64.000000, 149.500000) rotate(-45.000000) translate(-64.000000, -149.500000) " x="-26" y="149" width="180" height="1"></rect>
                            <rect id="Rectangle-5-Copy-16" transform="translate(64.000000, 154.500000) rotate(-45.000000) translate(-64.000000, -154.500000) " x="-26" y="154" width="180" height="1"></rect>
                            <rect id="Rectangle-5-Copy-15" transform="translate(64.000000, 159.500000) rotate(-45.000000) translate(-64.000000, -159.500000) " x="-26" y="159" width="180" height="1"></rect>
                            <rect id="Rectangle-5-Copy-14" transform="translate(64.000000, 164.500000) rotate(-45.000000) translate(-64.000000, -164.500000) " x="-26" y="164" width="180" height="1"></rect>
                            <rect id="Rectangle-5" transform="translate(64.000000, 169.500000) rotate(-45.000000) translate(-64.000000, -169.500000) " x="-26" y="169" width="180" height="1"></rect>
                            <rect id="Rectangle-5-Copy" transform="translate(64.000000, 174.500000) rotate(-45.000000) translate(-64.000000, -174.500000) " x="-26" y="174" width="180" height="1"></rect>
                            <rect id="Rectangle-5-Copy-3" transform="translate(64.000000, 179.500000) rotate(-45.000000) translate(-64.000000, -179.500000) " x="-26" y="179" width="180" height="1"></rect>
                            <rect id="Rectangle-5-Copy-2" transform="translate(64.000000, 184.500000) rotate(-45.000000) translate(-64.000000, -184.500000) " x="-26" y="184" width="180" height="1"></rect>
                            <rect id="Rectangle-5-Copy-5" transform="translate(64.000000, 189.500000) rotate(-45.000000) translate(-64.000000, -189.500000) " x="-26" y="189" width="180" height="1"></rect>
                            <rect id="Rectangle-5-Copy-4" transform="translate(64.000000, 194.500000) rotate(-45.000000) translate(-64.000000, -194.500000) " x="-26" y="194" width="180" height="1"></rect>
                            <rect id="Rectangle-5-Copy-7" transform="translate(64.000000, 199.500000) rotate(-45.000000) translate(-64.000000, -199.500000) " x="-26" y="199" width="180" height="1"></rect>
                            <rect id="Rectangle-5-Copy-13" transform="translate(64.000000, 204.500000) rotate(-45.000000) translate(-64.000000, -204.500000) " x="-26" y="204" width="180" height="1"></rect>
                            <rect id="Rectangle-5-Copy-12" transform="translate(64.000000, 209.500000) rotate(-45.000000) translate(-64.000000, -209.500000) " x="-26" y="209" width="180" height="1"></rect>
                            <rect id="Rectangle-5-Copy-11" transform="translate(64.000000, 214.500000) rotate(-45.000000) translate(-64.000000, -214.500000) " x="-26" y="214" width="180" height="1"></rect>
                            <rect id="Rectangle-5-Copy-10" transform="translate(64.000000, 219.500000) rotate(-45.000000) translate(-64.000000, -219.500000) " x="-26" y="219" width="180" height="1"></rect>
                            <rect id="Rectangle-5-Copy-9" transform="translate(64.000000, 224.500000) rotate(-45.000000) translate(-64.000000, -224.500000) " x="-26" y="224" width="180" height="1"></rect>
                            <rect id="Rectangle-5-Copy-6" transform="translate(64.000000, 229.500000) rotate(-45.000000) translate(-64.000000, -229.500000) " x="-26" y="229" width="180" height="1"></rect>
                            <rect id="Rectangle-5-Copy-8" transform="translate(64.000000, 234.500000) rotate(-45.000000) translate(-64.000000, -234.500000) " x="-26" y="234" width="180" height="1"></rect>
                            <rect id="Rectangle-5-Copy-20" transform="translate(64.000000, 239.500000) rotate(-45.000000) translate(-64.000000, -239.500000) " x="-26" y="239" width="180" height="1"></rect>
                            <rect id="Rectangle-5-Copy-19" transform="translate(64.000000, 244.500000) rotate(-45.000000) translate(-64.000000, -244.500000) " x="-26" y="244" width="180" height="1"></rect>
                            <rect id="Rectangle-5-Copy-18" transform="translate(64.000000, 249.500000) rotate(-45.000000) translate(-64.000000, -249.500000) " x="-26" y="249" width="180" height="1"></rect>
                            <rect id="Rectangle-5-Copy-17" transform="translate(64.000000, 254.500000) rotate(-45.000000) translate(-64.000000, -254.500000) " x="-26" y="254" width="180" height="1"></rect>
                            <rect id="Rectangle-5-Copy-16" transform="translate(64.000000, 259.500000) rotate(-45.000000) translate(-64.000000, -259.500000) " x="-26" y="259" width="180" height="1"></rect>
                            <rect id="Rectangle-5-Copy-15" transform="translate(64.000000, 264.500000) rotate(-45.000000) translate(-64.000000, -264.500000) " x="-26" y="264" width="180" height="1"></rect>
                            <rect id="Rectangle-5-Copy-14" transform="translate(64.000000, 269.500000) rotate(-45.000000) translate(-64.000000, -269.500000) " x="-26" y="269" width="180" height="1"></rect>
                        </g>
                    </g>
                </g>
            </g>
        </g>
    </g>
</svg>