<?xml version="1.0" encoding="iso-8859-1"?>
<!-- Generator: Adobe Illustrator 18.1.1, SVG Export Plug-In . SVG Version: 6.00 Build 0)  -->
<svg xmlns="http://www.w3.org/2000/svg" xmlns:xlink="http://www.w3.org/1999/xlink" version="1.1" id="Capa_1" x="0px" y="0px" viewBox="0 0 55.702 55.702" style="enable-background:new 0 0 55.702 55.702;" xml:space="preserve" width="512px" height="512px">
<g>
	<g>
		<path d="M27.851,0C12.494,0,0,12.494,0,27.851s12.494,27.851,27.851,27.851s27.851-12.494,27.851-27.851    C55.701,12.494,43.208,0,27.851,0z M27.851,51.213c-12.882,0-23.362-10.48-23.362-23.363c0-12.882,10.48-23.362,23.362-23.362    s23.362,10.481,23.362,23.363S40.733,51.213,27.851,51.213z" fill="#91DC5A"/>
		<path d="M36.729,18.97l-13,13.001l-4.757-4.757c-0.876-0.877-2.297-0.877-3.173,0    c-0.877,0.876-0.877,2.297,0,3.173l6.344,6.344c0.438,0.438,1.013,0.658,1.587,0.658s1.148-0.219,1.586-0.658l14.587-14.587    c0.876-0.877,0.876-2.297,0-3.174C39.026,18.094,37.606,18.094,36.729,18.97z" fill="#91DC5A"/>
	</g>
</g>
<g>
</g>
<g>
</g>
<g>
</g>
<g>
</g>
<g>
</g>
<g>
</g>
<g>
</g>
<g>
</g>
<g>
</g>
<g>
</g>
<g>
</g>
<g>
</g>
<g>
</g>
<g>
</g>
<g>
</g>
</svg>
